# xmcd
#
# Track frame offsets: 
#        150
#        4599
#        134595
#        177399
#        210438
#        248332
#
# Disc length: 4575 seconds
#
# Revision: 1
# Processed by: cddbd v1.5.2PL0 Copyright (c) Steve Scherf et al.
# Submitted via: ExactAudioCopy v1.0b4
#
DISCID=4511dd06
DTITLE=John Coltrane - So Many Things: The European Tour 1961 [CD3]
DYEAR=1961
DGENRE=Jazz
TTITLE0=My Favourite Things (False Start) and John Coltrane Announcement
TTITLE0=[Falkonercentret, Copenhagen 1961-11-20]
TTITLE1=My Favourite Things [Falkonercentret, Copenhagen 1961-11-20]
TTITLE2=Blue Train [Kulttuuritalo, Copenhagen 1961-11-22 (2nd House)]
TTITLE3=I Want Talk About You [Kulttuuritalo, Copenhagen 1961-11-22 (2
TTITLE3=nd House)]
TTITLE4=Impressions [Kulttuuritalo, Copenhagen 1961-11-22 (2nd House)]
TTITLE5=My Favourite Things [Kulttuuritalo, Copenhagen 1961-11-22 (2nd
TTITLE5=House)]
EXTD=YEAR: 1961
EXTT0=
EXTT1=
EXTT2=
EXTT3=
EXTT4=
EXTT5=
PLAYORDER=
